<svg xmlns="http://www.w3.org/2000/svg" viewBox="0 0 500 500"><g id="freepik--background-complete--inject-25"><rect y="382.4" width="500" height="0.25" style="fill:#ebebeb"></rect><rect x="428.22" y="398.49" width="21.68" height="0.25" style="fill:#ebebeb"></rect><rect x="310.56" y="393.31" width="34.11" height="0.25" style="fill:#ebebeb"></rect><rect x="396.59" y="389.21" width="44.53" height="0.25" style="fill:#ebebeb"></rect><rect x="161.88" y="394.25" width="11.14" height="0.25" style="fill:#ebebeb"></rect><rect x="114.58" y="394.25" width="38.39" height="0.25" style="fill:#ebebeb"></rect><rect x="66.31" y="390.03" width="27.7" height="0.25" style="fill:#ebebeb"></rect><path d="M237,337.8H43.91a5.71,5.71,0,0,1-5.7-5.71V60.66A5.71,5.71,0,0,1,43.91,55H237a5.71,5.71,0,0,1,5.71,5.71V332.09A5.71,5.71,0,0,1,237,337.8ZM43.91,55.2a5.46,5.46,0,0,0-5.45,5.46V332.09a5.46,5.46,0,0,0,5.45,5.46H237a5.47,5.47,0,0,0,5.46-5.46V60.66A5.47,5.47,0,0,0,237,55.2Z" style="fill:#ebebeb"></path><path d="M453.31,337.8H260.21a5.72,5.72,0,0,1-5.71-5.71V60.66A5.72,5.72,0,0,1,260.21,55h193.1A5.71,5.71,0,0,1,459,60.66V332.09A5.71,5.71,0,0,1,453.31,337.8ZM260.21,55.2a5.47,5.47,0,0,0-5.46,5.46V332.09a5.47,5.47,0,0,0,5.46,5.46h193.1a5.47,5.47,0,0,0,5.46-5.46V60.66a5.47,5.47,0,0,0-5.46-5.46Z" style="fill:#ebebeb"></path><path d="M131.33,237.67c-6.16-2.67-15.67,5.22-15.59-1.77s-8-10.73-13.61-4.63-8.44,10.32-14.2,6.71-9.21-1-12.21,3.82a2.8,2.8,0,0,1-.25.35c-2.91,3.61,0,9,4.61,9h33.36a21.74,21.74,0,0,0,13.77-4.87C131.18,243.07,134.79,239.16,131.33,237.67Z" style="fill:#ebebeb"></path><path d="M263.3,113.82c2.8-10.83.24-16.76-19.9-8.62s-18.13-1.4-18.66-15.11-26.17-5.3-39.86,10.44-13.24.17-33.86,14.93c-12.71,9.09-11.65,14.67-9.48,17.41a5.59,5.59,0,0,0,4.38,2H278a9.26,9.26,0,0,0,8-4.45C291.93,120.39,260.81,123.45,263.3,113.82Z" style="fill:#fafafa"></path><circle cx="318.78" cy="229.19" r="36.96" style="fill:#fafafa"></circle><path d="M431,156c-1.08-4.83-9.71-6.43-19.78-2.68s6.3-19.75-11.14-15.81c-24.91,5.63-26.39,22.6-34.94,20.9s-17.73-2-24.27-.2-5.17,11.19,1.48,11.19h70a20.67,20.67,0,0,0,16.95-8.53C430.55,159.12,431.31,157.4,431,156Z" style="fill:#f5f5f5"></path><path d="M123.73,311.41c48.06-18.87,64.12,56.12,133.55,35.49s105.16-1.13,122.78,11.78,25.71,23.72,25.71,23.72H65.88S90.79,324.34,123.73,311.41Z" style="fill:#fafafa"></path><path d="M335.09,366.81c-16.95-8.49-51.34-21.3-118.14-7.74s-82.26-35.73-128.5-23.34c-31.7,8.5-55.67,46.67-55.67,46.67H359.84S352.05,375.29,335.09,366.81Z" style="fill:#f0f0f0"></path><path d="M437.63,362.3C415.44,357,408,378.19,376,372.35s-48.54-.32-56.67,3.33-11.87,6.72-11.87,6.72H464.33S452.84,366,437.63,362.3Z" style="fill:#e6e6e6"></path></g><g id="freepik--Balloons--inject-25"><path d="M111.65,211.87c-7.13-7.75-9.89-19-12.56-29.91-2.38-9.76-4.85-19.85-10.48-27l.38-.3c5.69,7.2,8.17,17.34,10.57,27.15,2.66,10.84,5.4,22,12.44,29.7Z" style="fill:#263238"></path><path d="M92.69,119.4a31.38,31.38,0,0,0-3.82-5l.73-.68a32.69,32.69,0,0,1,3.94,5.18Z" style="fill:#FFFFFF"></path><path d="M85.14,111.06a21.66,21.66,0,0,0-16-4.19l-.15-1a22.61,22.61,0,0,1,16.79,4.37Z" style="fill:#FFFFFF"></path><path d="M90.56,120.71c-7.15-11.62-19.2-14.38-28.46-8.68S49.88,129.73,57,141.35c6.85,11.12,21.12,18.87,30.44,14.5a4.49,4.49,0,0,0,.58,3.17l4.31-2.66a4.45,4.45,0,0,0-2.57-1.94C97.9,148.06,97.41,131.83,90.56,120.71Z" style="fill:#FFFFFF"></path><path d="M87.47,156.27a.4.4,0,0,1-.25-.09.42.42,0,0,1-.08-.59c.14-.18,1.41-1.82,2.72-1.59a.43.43,0,0,1,.35.49.42.42,0,0,1-.49.34c-.69-.12-1.63.9-1.91,1.27A.42.42,0,0,1,87.47,156.27Z" style="fill:#263238"></path><path d="M165.17,120.47c-4-8.57-4.27-15.76-4.53-22.11-.26-6.63-.49-12.35-4.74-18l.28-.21c4.32,5.75,4.54,11.52,4.81,18.2.25,6.32.53,13.48,4.5,22Z" style="fill:#263238"></path><path d="M140.54,61.37c-.82-9.72,4.94-16.42,12.68-17.07s14.54,5,15.36,14.7c.79,9.31-4.13,19.82-11.35,21.26a3.15,3.15,0,0,1,1,2.07l-3.6.31a3.15,3.15,0,0,1,.65-2.21C147.93,80.21,141.32,70.67,140.54,61.37Z" style="fill:#FFFFFF"></path><path d="M140.54,61.37c-.82-9.72,4.94-16.42,12.68-17.07s14.54,5,15.36,14.7c.79,9.31-4.13,19.82-11.35,21.26a3.15,3.15,0,0,1,1,2.07l-3.6.31a3.15,3.15,0,0,1,.65-2.21C147.93,80.21,141.32,70.67,140.54,61.37Z" style="fill:#fff;opacity:0.6000000000000001"></path><path d="M155.29,80.73a.29.29,0,0,1-.21-.09.3.3,0,0,1,0-.42c.66-.69,2.09-.29,2.24-.25a.31.31,0,0,1,.21.38.3.3,0,0,1-.38.2c-.31-.09-1.29-.27-1.63.09A.31.31,0,0,1,155.29,80.73Z" style="fill:#263238"></path><path d="M391,278.73c-1.45-4.76,1-13.23,3.69-22.2,2.92-9.91,6.24-21.16,4.62-29l.43-.08c1.63,8-1.7,19.29-4.64,29.26-2.62,8.9-5.1,17.31-3.68,21.94Z" style="fill:#263238"></path><path d="M390.51,198.05c3.67-11.71,13.58-16.78,22.92-13.85S428,197,424.31,208.66c-3.52,11.22-14.26,21.13-23.37,19.37a4,4,0,0,1,.2,2.89l-4.35-1.36a4,4,0,0,1,1.82-2.27C390.13,223.53,387,209.26,390.51,198.05Z" style="fill:#FFFFFF"></path><path d="M390.51,198.05c3.67-11.71,13.58-16.78,22.92-13.85S428,197,424.31,208.66c-3.52,11.22-14.26,21.13-23.37,19.37a4,4,0,0,1,.2,2.89l-4.35-1.36a4,4,0,0,1,1.82-2.27C390.13,223.53,387,209.26,390.51,198.05Z" style="fill:#fff;opacity:0.8"></path><path d="M400.94,228.41a.35.35,0,0,1-.23-.09c-.33-.26-1.38-.94-1.95-.68a.38.38,0,1,1-.31-.69c1.09-.49,2.57.65,2.73.78a.38.38,0,0,1-.24.68Z" style="fill:#263238"></path></g></svg>